<?xml version="1.0" encoding="utf-8"?>
<!-- Generator: Adobe Illustrator 18.1.1, SVG Export Plug-In . SVG Version: 6.00 Build 0)  -->
<svg version="1.1" id="Capa_1" xmlns="http://www.w3.org/2000/svg" xmlns:xlink="http://www.w3.org/1999/xlink" x="0px" y="0px"
	 viewBox="0 0 841.9 1190.6" enable-background="new 0 0 841.9 1190.6" xml:space="preserve">
<g>
	<path d="M818.2,601c1.5-3.7,1.5-7.8,0-11.5c-0.8-1.8-1.9-3.5-3.3-4.9L634.5,404.2c-5.9-5.9-15.4-5.9-21.3,0s-5.9,15.4,0,21.3
		L768,580.2H128.2c-8.3,0-15,6.7-15,15s6.7,15,15,15H768L613.3,765.1c-5.9,5.9-5.9,15.4,0,21.3c2.9,2.9,6.8,4.4,10.6,4.4
		c3.8,0,7.7-1.5,10.6-4.4l180.4-180.4C816.3,604.5,817.4,602.9,818.2,601z"/>
</g>
</svg>
