<svg height="365pt" viewBox="0 0 365 365.99813" width="365pt" xmlns="http://www.w3.org/2000/svg"><path d="m153.714844 7.628906c-10.171875-10.171875-26.664063-10.171875-36.835938 0l-18.585937 18.585938c11.929687 20.539062 8.539062 46.539062-8.257813 63.332031-16.796875 16.796875-42.792968 20.1875-63.332031 8.257813l-18.585937 18.589843c-10.15625 10.175781-10.15625 26.65625 0 36.832031l174.917968 174.921876 145.988282-145.210938zm0 0"/><path d="m338.921875 192.835938-145.984375 145.210937 20.320312 20.324219c10.171876 10.167968 26.664063 10.167968 36.835938 0l108.765625-108.765625c10.152344-10.179688 10.152344-26.65625 0-36.835938zm0 0"/></svg>