<?xml version="1.0" encoding="utf-8"?>
<!-- Generator: Adobe Illustrator 18.1.1, SVG Export Plug-In . SVG Version: 6.00 Build 0)  -->
<svg version="1.1" id="Capa_1" xmlns="http://www.w3.org/2000/svg" xmlns:xlink="http://www.w3.org/1999/xlink" x="0px" y="0px"
	 viewBox="-283 374.8 44.2 44.2" enable-background="new -283 374.8 44.2 44.2" xml:space="preserve">
<circle fill="#FF7B80" cx="-261" cy="397.2" r="21.4"/>
<g>
	<g>
		<path fill="#D5666A" d="M-260.9,374.8c12.2,0,22.1,9.9,22.1,22.1c0,12.2-9.9,22.1-22.1,22.1c-12.2,0-22.1-9.9-22.1-22.1
			C-283,384.7-273.1,374.8-260.9,374.8z M-260.9,417.5c11.4,0,20.6-9.2,20.6-20.6c0-11.4-9.3-20.6-20.6-20.6
			c-11.4,0-20.6,9.3-20.6,20.6C-281.5,408.3-272.3,417.5-260.9,417.5z"/>
		<path fill="#FFFFFF" d="M-258.1,389.1c0.2,0,0.4,0.1,0.5,0.2c0.3,0.3,0.3,0.8,0,1.1l-6.8,6.8l6.8,6.8c0.3,0.3,0.3,0.8,0,1.1
			c-0.3,0.3-0.8,0.3-1.1,0l-7.3-7.3c-0.3-0.3-0.3-0.8,0-1.1l7.3-7.3C-258.5,389.2-258.3,389.1-258.1,389.1z"/>
	</g>
</g>
</svg>
