<?xml version="1.0" encoding="utf-8"?>
<!-- Generator: Adobe Illustrator 18.1.1, SVG Export Plug-In . SVG Version: 6.00 Build 0)  -->
<svg version="1.1" id="Слой_1" xmlns="http://www.w3.org/2000/svg" xmlns:xlink="http://www.w3.org/1999/xlink" x="0px" y="0px"
	 viewBox="0 0 841.9 1190.6" enable-background="new 0 0 841.9 1190.6" xml:space="preserve">
<g>
	<path fill="none" stroke="#201600" stroke-width="2" stroke-miterlimit="10" d="M70.9,39c4.7,2.1,8.4,5.2,11,9.2
		c2.6,4,3.8,8.6,3.8,14c0,5.3-1.3,10-3.8,14c-2.6,4-6.2,7-11,9.2c-4.8,2.1-10.3,3.2-16.8,3.2H39.5v21.6c0,4.7-3.8,8.4-8.4,8.4h0
		c-4.7,0-8.4-3.8-8.4-8.4v-53c0-11.8,9.6-21.3,21.3-21.3h10.2C60.6,35.8,66.2,36.9,70.9,39z"/>
</g>
<circle fill="none" stroke="#201600" stroke-width="2" stroke-miterlimit="10" cx="63.5" cy="54.5" r="28.8"/>
<g>
	<path fill="#201600" d="M299,119.8c-14.7,0-26.1-11.3-26.1-25.9c0-14.4,11.4-25.7,26-25.7c14.7,0,26.2,11.3,26.2,25.8
		C325.2,108.5,313.7,119.8,299,119.8z M319.7,94c0-11.7-8.9-20.7-20.5-20.9c-11.5-0.1-20.6,9-20.6,20.7c0,11.8,8.8,20.9,20.3,21
		C310.6,114.9,319.7,105.8,319.7,94z"/>
	<path fill="#201600" d="M125.2,89.3c-0.2-2.7-0.2-5-0.5-7.3c-0.7-5-3.9-8.3-9.1-8.5c-4.2-0.1-8.3,0.1-12.6,1
		c-0.8,0.2-1.6,0.4-2.8,0.8c0.3-1.6,0.4-2.9,0.8-4.1c0.2-0.5,0.8-1,1.3-1.2c5.7-1.8,11.4-2.3,17.2-0.7c6.7,1.7,10.6,6.8,10.7,14.4
		c0.2,11.5,0.2,23,0.2,34.5c0,0.1-0.1,0.3-0.2,0.5c-1.5,0-3.1,0-4.7,0c-0.2-1.6-0.3-3-0.5-4.9c-4.9,5-10.7,6.7-17.1,5.8
		c-4.5-0.6-8.3-2.7-11.3-6.2c-5.9-6.9-5.9-17.1,0.2-23.9c3.6-4.1,8.3-6.1,13.8-6.1C116.3,83.3,121.9,85.6,125.2,89.3z M111.6,88.1
		c-7.7,0-13.9,5.9-14,13.5c0,7.5,6.2,13.6,13.8,13.6c7.8,0,13.8-5.9,13.9-13.5C125.4,94,119.4,88.1,111.6,88.1z"/>
	<path fill="#201600" d="M190.1,74.1c0,3.8,0,7.3,0,10.7c0,6.8-0.1,13.7,0,20.5c0.1,6.8,4.1,10.2,10.8,9c1.3-0.2,2.6-0.6,4.2-1.1
		c0,1.4,0.1,2.7-0.1,4c-0.1,0.5-0.6,1.1-1.1,1.3c-9.6,3.1-19.2-1-19.2-12.7c0-9.7,0-19.4,0-29.1c0-0.8,0-1.6,0-2.6c-2.6,0-5,0-7.3,0
		c-0.1-0.4-0.2-0.6-0.2-0.7c0.7-4.3,0.7-4.3,5.1-4.3c0.7,0,1.4,0,2.4,0c0-3.2,0.2-6.2-0.1-9.2c-0.2-2.2,0.5-3.5,2.5-4.4
		c0.9-0.4,1.7-1.1,2.8-1.8c0,5.3,0,10.2,0,15.3c5.1,0,9.9,0,15,0c0,1.7,0,3.3,0,5C200.1,74.1,195.3,74.1,190.1,74.1z"/>
	<path fill="#201600" d="M244.5,74.1c-2.6,0-5,0-7.8,0c1-1.8-0.2-4.2,2.2-4.8c1.7-0.4,3.6-0.1,5.7-0.1c0-3.1,0.2-6-0.1-8.9
		c-0.2-2.3,0.5-3.8,2.6-4.8c0.8-0.4,1.5-1,2.6-1.7c0,5.2,0,10.1,0,15.3c5.1,0,10.1,0,15.1,0c0,1.8,0,3.3,0,5c-4.9,0-9.8,0-15,0
		c0,0.9,0,1.6,0,2.3c0,9.4,0,18.9,0,28.3c0,1.2,0.1,2.4,0.4,3.6c0.8,3.8,3.5,6.2,7.4,6.2c2.4,0,4.8-0.5,7.2-0.8
		c0.1,5.3,1.3,4.8-4.8,5.8c-8.8,1.4-15.3-4.1-15.4-13c-0.1-9.9,0-19.7,0-29.6C244.5,76.1,244.5,75.3,244.5,74.1z"/>
	<path fill="#201600" d="M152.4,77.8c4.5-6.7,10.7-9.4,18.6-9.5c0,1.8,0,3.5,0,5.4c-1.2,0.2-2.6,0.3-3.9,0.5
		c-8.4,1.3-13.8,6.9-14.1,15.4c-0.4,8.7-0.2,17.4-0.2,26.1c0,0.9,0,1.9,0,2.9c-1.8,0-3.4,0-5.4,0c0-0.8,0-1.6,0-2.4
		c0-14.5,0.1-29.1-0.1-43.6c0-2.4,0.6-3.4,2.9-3.6c0.7,0,1.4-0.3,2.2-0.5C152.4,71.8,152.4,74.8,152.4,77.8z"/>
	<path fill="#201600" d="M223.9,118.7c-1.8,0-3.4,0-5.3,0c0-0.9,0-1.7,0-2.4c0-14.6,0-29.2-0.1-43.8c0-2.1,0.5-3.2,2.7-3.3
		c0.8-0.1,1.7-0.3,2.7-0.5C223.9,85.4,223.9,102,223.9,118.7z"/>
	<path fill="#201600" d="M221.5,53.3c-2.5,0-4.4-1.8-4.4-4.3c0-2.4,1.8-4.2,4.2-4.3c2.4,0,4.4,1.9,4.4,4.4
		C225.7,51.4,223.9,53.3,221.5,53.3z"/>
</g>
</svg>
